<?xml version="1.0" standalone="no"?>
<!DOCTYPE svg PUBLIC "-//W3C//DTD SVG 20010904//EN"
 "http://www.w3.org/TR/2001/REC-SVG-20010904/DTD/svg10.dtd">
<svg version="1.0" xmlns="http://www.w3.org/2000/svg"
 width="1280.000000pt" height="802.000000pt" viewBox="0 0 1280.000000 802.000000"
 preserveAspectRatio="xMidYMid meet">
<metadata>
Created by potrace 1.15, written by Peter Selinger 2001-2017
</metadata>
<g transform="translate(0.000000,802.000000) scale(0.100000,-0.100000)"
fill="#000000" stroke="none">
<path d="M4590 7609 c-766 -24 -1733 -144 -2172 -269 -206 -58 -425 -195 -538
-334 -40 -50 -49 -56 -82 -56 -33 0 -38 -3 -38 -24 0 -13 5 -26 11 -28 14 -5
-598 -1124 -612 -1120 -6 1 -8 -2 -4 -8 8 -13 -166 -332 -205 -376 -27 -31
-31 -47 -67 -251 -4 -26 -10 -33 -29 -33 -23 0 -23 0 -26 150 -3 144 -2 150
17 150 37 0 63 12 68 29 2 9 1 46 -4 82 -4 35 -15 136 -24 224 -10 88 -21 168
-27 178 -7 13 -21 17 -64 17 -49 0 -55 -2 -64 -26 -6 -14 -10 -63 -10 -110 0
-83 0 -84 -25 -84 -29 0 -75 -40 -75 -65 0 -19 44 -65 62 -65 8 0 31 -35 52
-77 l38 -77 6 -159 c4 -142 3 -161 -11 -169 -23 -13 -25 -198 -3 -198 8 0 16
-10 18 -22 2 -15 10 -23 23 -23 13 0 21 8 23 23 2 13 10 22 20 22 14 0 17 -9
17 -39 0 -22 2 -39 5 -38 11 4 12 -23 6 -133 -6 -104 -10 -119 -36 -160 -42
-65 -113 -221 -143 -315 -66 -202 -97 -398 -97 -625 0 -245 42 -472 121 -655
52 -121 52 -123 -18 -127 l-58 -3 -7 -64 c-7 -60 -21 -87 -40 -75 -5 3 -19 27
-33 53 -34 68 -76 81 -120 36 -22 -21 -25 -33 -25 -92 1 -37 11 -158 24 -268
22 -195 23 -201 5 -247 -40 -103 -51 -168 -38 -217 19 -69 66 -158 108 -204
37 -40 39 -45 42 -124 4 -70 8 -85 28 -107 29 -30 55 -32 180 -12 52 9 89 20
96 29 10 15 16 15 61 1 57 -17 301 -77 390 -95 l61 -12 27 -86 c57 -185 172
-366 296 -468 112 -93 275 -162 460 -195 97 -17 534 -15 628 3 76 14 178 53
238 91 116 74 251 218 330 353 l35 60 512 1 c551 1 713 11 1120 64 49 7 89 10
91 8 1 -1 11 -43 23 -91 57 -228 188 -442 342 -559 202 -153 452 -207 873
-187 210 10 279 24 384 80 346 185 599 689 607 1208 2 117 3 128 18 115 8 -8
23 -14 31 -14 25 0 78 67 78 98 0 34 10 47 35 48 11 1 119 24 240 52 481 112
921 215 1145 267 129 29 431 99 670 155 464 108 439 104 551 74 13 -4 17 -28
22 -147 11 -269 78 -462 199 -572 61 -55 113 -78 218 -99 224 -43 432 -44 526
-1 173 77 327 357 393 710 22 120 31 206 31 293 l0 88 223 -88 c239 -96 330
-122 477 -138 91 -9 96 -9 113 11 23 28 22 66 -2 79 -11 5 -37 10 -59 10 -32
0 -213 31 -257 44 -5 1 45 13 110 25 66 13 128 27 137 32 9 5 30 37 47 71 36
70 39 118 13 193 l-18 50 55 113 c65 135 72 197 30 272 -32 59 -75 86 -171
107 l-79 18 5 55 c18 175 27 550 17 722 -6 101 -16 278 -21 394 -10 215 -25
426 -39 573 -6 54 -5 95 1 114 15 42 3 135 -22 169 -14 20 -29 76 -51 195 -88
495 -186 840 -279 987 -23 36 -26 46 -14 46 24 0 10 25 -16 28 -13 2 -43 21
-66 41 -80 70 -365 204 -554 260 -255 76 -761 166 -1150 205 -888 90 -2434
194 -3505 236 -709 28 -1343 35 -1835 19z m7593 -4165 c21 -4 51 -19 67 -34
45 -42 42 -101 -11 -197 -32 -58 -45 -73 -58 -67 -9 4 -38 12 -66 17 -27 6
-51 11 -52 12 -1 1 9 61 22 135 14 73 25 135 25 137 0 5 31 4 73 -3z m-391
-635 c87 -12 87 -12 102 -48 8 -20 11 -37 8 -38 -13 -5 -252 93 -246 100 4 4
16 5 28 2 12 -2 60 -9 108 -16z"/>
<path d="M12120 3438 c0 -2 -11 -60 -23 -130 l-24 -128 22 0 c13 0 40 -6 62
-14 l40 -14 36 74 c60 121 45 183 -50 205 -38 9 -63 11 -63 7z"/>
<path d="M11795 2772 c50 -21 91 -38 93 -36 1 1 -2 13 -9 27 -9 20 -21 26 -58
32 -25 3 -62 8 -81 11 -24 3 -6 -7 55 -34z"/>
<path d="M892 5800 c0 -14 2 -19 5 -12 2 6 2 18 0 25 -3 6 -5 1 -5 -13z"/>
<path d="M900 5716 c0 -6 7 -66 15 -134 18 -153 9 -182 -56 -182 -18 0 -19 -9
-19 -140 0 -118 2 -140 15 -140 8 0 15 4 15 8 0 5 9 60 20 122 18 98 26 120
54 155 18 22 64 96 101 165 37 69 69 128 71 131 1 3 -18 1 -44 -4 -39 -8 -59
-6 -110 10 -40 13 -62 16 -62 9z m-43 -488 c-2 -24 -4 -5 -4 42 0 47 2 66 4
43 2 -24 2 -62 0 -85z"/>
<path d="M840 4881 c0 -11 4 -22 9 -25 4 -3 6 6 3 19 -5 30 -12 33 -12 6z"/>
<path d="M862 4780 c0 -19 2 -27 5 -17 2 9 2 25 0 35 -3 9 -5 1 -5 -18z"/>
<path d="M12138 3573 c6 -2 18 -2 25 0 6 3 1 5 -13 5 -14 0 -19 -2 -12 -5z"/>
<path d="M706 2927 c3 -10 9 -15 12 -12 3 3 0 11 -7 18 -10 9 -11 8 -5 -6z"/>
<path d="M723 2861 c-10 -16 -9 -20 8 -24 20 -5 25 8 11 30 -6 9 -11 7 -19 -6z"/>
<path d="M570 2745 c0 -15 29 -55 41 -55 5 0 9 14 9 31 0 28 -2 30 -16 18 -13
-10 -17 -10 -25 2 -5 8 -9 9 -9 4z"/>
<path d="M11518 2720 c4 -26 6 -28 28 -18 31 15 30 24 -4 36 -27 9 -28 8 -24
-18z"/>
<path d="M11590 2710 c8 -5 20 -10 25 -10 6 0 3 5 -5 10 -8 5 -19 10 -25 10
-5 0 -3 -5 5 -10z"/>
<path d="M12115 2701 l-80 -17 80 -13 c44 -7 88 -14 98 -16 13 -2 17 4 17 31
0 39 3 39 -115 15z"/>
<path d="M11640 2690 c8 -5 20 -10 25 -10 6 0 3 5 -5 10 -8 5 -19 10 -25 10
-5 0 -3 -5 5 -10z"/>
<path d="M12253 2653 c9 -2 23 -2 30 0 6 3 -1 5 -18 5 -16 0 -22 -2 -12 -5z"/>
<path d="M11513 2610 c0 -25 2 -35 4 -22 2 12 2 32 0 45 -2 12 -4 2 -4 -23z"/>
<path d="M10040 2490 c34 -11 60 -11 35 0 -11 5 -29 8 -40 8 -16 0 -15 -2 5
-8z"/>
<path d="M10101 2464 c0 -11 3 -14 6 -6 3 7 2 16 -1 19 -3 4 -6 -2 -5 -13z"/>
<path d="M1340 1406 c0 -2 7 -7 16 -10 8 -3 12 -2 9 4 -6 10 -25 14 -25 6z"/>
<path d="M5082 1233 c9 -2 19 -12 21 -21 3 -12 5 -10 6 6 1 17 -4 22 -21 21
-16 -1 -18 -3 -6 -6z"/>
<path d="M5028 1223 c6 -2 18 -2 25 0 6 3 1 5 -13 5 -14 0 -19 -2 -12 -5z"/>
</g>
</svg>
